<?xml version="1.0" standalone="no"?>
<!DOCTYPE svg PUBLIC "-//W3C//DTD SVG 20010904//EN"
 "http://www.w3.org/TR/2001/REC-SVG-20010904/DTD/svg10.dtd">
<svg version="1.0" xmlns="http://www.w3.org/2000/svg"
 width="1584.000000pt" height="396.000000pt" viewBox="0 0 1584.000000 396.000000"
 preserveAspectRatio="xMidYMid meet">
<metadata>
Created by potrace 1.16, written by Peter Selinger 2001-2019
</metadata>
<g transform="translate(0.000000,396.000000) scale(0.100000,-0.100000)"
fill="#000000" stroke="none">
<path d="M5520 2074 c0 -881 0 -893 20 -904 12 -6 77 -9 167 -8 146 3 148 3
160 28 11 20 13 165 10 720 -3 626 -5 701 -21 755 -41 143 -144 245 -290 289
l-46 14 0 -894z"/>
<path d="M11980 2540 l0 -422 -39 31 c-232 184 -599 131 -759 -109 -83 -123
-117 -308 -88 -468 53 -297 294 -478 585 -441 129 16 220 60 307 148 l40 41
32 -45 c54 -77 159 -135 244 -135 l28 0 0 733 c0 457 -4 748 -11 776 -16 69
-58 146 -108 196 -47 47 -141 100 -198 111 l-33 7 0 -423z m-179 -580 c54 -15
122 -80 149 -142 46 -106 25 -254 -48 -332 -104 -111 -295 -97 -379 28 -40 59
-53 103 -53 182 0 191 153 313 331 264z"/>
<path d="M881 2805 c-208 -47 -364 -192 -401 -372 -20 -92 -9 -237 21 -303 67
-145 170 -205 478 -281 198 -48 250 -69 296 -120 41 -46 49 -72 43 -145 -4
-45 -10 -61 -38 -89 -43 -44 -106 -65 -194 -65 -155 1 -257 71 -291 201 -8 29
-20 56 -27 60 -21 14 -322 11 -336 -3 -33 -33 8 -216 67 -302 71 -103 193
-183 341 -223 91 -25 339 -25 430 0 266 72 410 246 410 494 0 184 -65 305
-208 390 -59 35 -164 69 -319 104 -180 40 -226 57 -273 96 -92 79 -69 212 45
264 46 21 148 25 210 8 55 -15 119 -82 135 -139 21 -75 32 -80 187 -80 74 0
143 5 154 10 33 18 21 125 -26 225 -55 114 -166 205 -309 251 -102 33 -293 42
-395 19z"/>
<path d="M1822 2802 c-145 -52 -188 -200 -86 -296 77 -71 256 -88 360 -34 102
53 137 162 80 248 -56 85 -231 125 -354 82z"/>
<path d="M12532 2805 c-103 -32 -157 -100 -150 -189 6 -67 31 -104 100 -142
49 -27 61 -29 153 -29 89 0 106 3 155 27 69 34 102 76 108 140 6 60 -10 98
-59 142 -66 61 -204 83 -307 51z"/>
<path d="M7708 2789 c-16 -9 -18 -27 -18 -144 0 -73 3 -140 6 -149 5 -14 45
-16 343 -17 319 0 335 -1 311 -17 -96 -65 -164 -163 -197 -283 -16 -57 -18
-116 -18 -532 0 -405 2 -469 15 -477 23 -15 303 -13 323 3 16 11 17 65 19 657
l3 645 215 5 215 5 3 144 c2 97 -1 148 -9 157 -10 12 -111 14 -603 14 -383 -1
-597 -4 -608 -11z"/>
<path d="M2827 2246 c-76 -22 -147 -61 -217 -119 l-66 -54 -36 42 c-40 46
-151 109 -211 120 l-38 7 3 -531 c3 -460 5 -533 18 -541 20 -13 296 -13 321 0
18 10 19 24 19 314 0 342 6 381 65 440 57 57 160 66 224 18 55 -41 60 -76 60
-429 1 -279 3 -324 17 -337 23 -23 305 -23 328 0 14 13 16 56 16 318 0 337 6
377 61 434 17 18 34 32 38 32 3 1 25 5 49 9 90 18 165 -21 191 -98 7 -22 11
-140 11 -345 0 -230 4 -317 13 -336 12 -25 14 -25 160 -28 93 -2 155 2 168 8
20 11 20 18 17 408 -3 387 -4 398 -26 454 -13 31 -43 79 -67 105 -146 163
-479 164 -642 3 l-42 -42 -58 59 c-40 42 -73 65 -108 77 -67 24 -206 30 -268
12z"/>
<path d="M4800 2254 c-110 -22 -194 -66 -276 -146 l-60 -59 -31 44 c-38 52
-90 90 -170 123 -104 42 -93 110 -93 -603 1 -692 4 -735 60 -849 43 -88 121
-157 207 -184 36 -11 71 -20 79 -20 12 0 14 57 14 351 l0 351 38 -30 c91 -72
198 -105 332 -104 204 1 365 96 452 266 46 91 59 142 65 262 9 185 -34 325
-136 436 -100 109 -206 157 -361 163 -52 2 -106 1 -120 -1z m85 -303 c53 -25
103 -76 129 -131 30 -65 29 -196 -3 -263 -28 -58 -96 -119 -149 -135 -168 -50
-318 60 -330 242 -5 86 8 139 51 202 63 94 200 132 302 85z"/>
<path d="M6425 2244 c-107 -22 -229 -86 -301 -159 -106 -105 -154 -229 -154
-395 0 -164 42 -279 141 -385 110 -117 265 -176 469 -177 193 -2 326 46 436
156 68 68 128 175 122 218 -3 23 -5 23 -165 26 l-162 2 -18 -26 c-66 -98 -129
-130 -241 -121 -109 8 -185 84 -199 196 l-6 51 400 0 c297 0 402 3 411 12 7 7
12 39 12 73 -1 151 -61 297 -162 390 -139 129 -367 183 -583 139z m218 -235
c49 -13 105 -63 128 -114 36 -79 46 -75 -201 -75 -169 0 -220 3 -220 13 0 6
11 35 24 63 47 100 154 145 269 113z"/>
<path d="M10134 2245 c-227 -49 -379 -243 -399 -506 -26 -345 199 -610 519
-611 153 -1 267 43 372 144 l62 59 36 -51 c20 -28 58 -64 84 -81 44 -28 128
-59 159 -59 11 0 13 102 13 551 l0 552 -42 -7 c-23 -4 -61 -15 -84 -26 -49
-21 -129 -92 -150 -131 l-14 -28 -58 59 c-126 125 -311 176 -498 135z m317
-285 c54 -15 122 -80 149 -142 46 -106 25 -254 -48 -332 -104 -111 -295 -97
-379 28 -40 59 -53 103 -53 182 0 191 153 313 331 264z"/>
<path d="M13540 2246 c-82 -22 -141 -59 -210 -133 l-67 -72 -35 47 c-41 56
-95 95 -175 128 -103 42 -93 97 -93 -500 0 -464 2 -526 16 -540 23 -23 305
-23 328 0 14 13 16 56 16 313 0 235 3 307 14 339 34 94 102 145 194 144 59 0
89 -16 126 -66 20 -26 21 -44 26 -370 4 -270 8 -346 19 -359 11 -14 36 -17
160 -17 104 0 152 4 165 13 16 12 17 39 14 387 -4 352 -5 379 -25 439 -44 130
-130 215 -248 246 -70 18 -162 18 -225 1z"/>
<path d="M14518 2244 c-88 -21 -176 -70 -240 -135 -240 -240 -197 -728 80
-903 182 -115 443 -106 610 21 23 18 45 33 49 33 3 0 3 -60 0 -133 -7 -180
-30 -232 -122 -280 -54 -28 -198 -30 -267 -4 -52 20 -112 81 -123 125 -13 51
-17 52 -186 52 -186 0 -186 0 -165 -92 43 -186 179 -301 412 -350 82 -16 122
-19 229 -15 149 7 232 24 323 69 85 42 152 104 190 176 62 117 62 113 62 807
l0 632 -61 -9 c-80 -11 -153 -51 -201 -111 -21 -27 -38 -53 -38 -58 0 -5 -24
14 -53 43 -123 124 -321 176 -499 132z m353 -301 c60 -31 112 -92 129 -151 15
-54 12 -162 -5 -213 -49 -144 -211 -210 -346 -141 -96 49 -143 135 -141 264 1
203 190 328 363 241z"/>
<path d="M9540 2240 c-99 -17 -177 -67 -231 -152 l-33 -51 -21 29 c-56 80
-163 152 -252 170 l-33 7 0 -526 c0 -464 2 -527 16 -541 13 -13 42 -16 162
-16 81 0 154 5 162 10 13 8 16 56 20 302 5 276 6 295 27 333 49 92 106 118
247 113 l101 -3 3 152 c2 137 1 153 -15 161 -28 14 -103 20 -153 12z"/>
<path d="M1780 1717 c0 -464 2 -527 16 -541 23 -23 305 -23 328 0 14 13 16 57
16 332 0 347 -7 417 -49 507 -49 106 -166 198 -278 221 l-33 7 0 -526z"/>
<path d="M12480 1712 c0 -520 0 -532 20 -542 12 -6 77 -9 167 -8 146 3 148 3
161 28 17 32 11 670 -7 739 -40 151 -168 279 -309 307 l-32 7 0 -531z"/>
</g>
</svg>
